<svg width="303" height="302" xmlns="http://www.w3.org/2000/svg" xmlns:xlink="http://www.w3.org/1999/xlink" xml:space="preserve" overflow="hidden"><defs><clipPath id="clip0"><rect x="1391" y="711" width="303" height="302"/></clipPath><linearGradient x1="147.611" y1="146.017" x2="246.348" y2="146.017" gradientUnits="userSpaceOnUse" spreadMethod="pad" id="fill1"><stop offset="0" stop-color="#773ADC"/><stop offset="0.001" stop-color="#773ADC"/><stop offset="1" stop-color="#552F99"/></linearGradient><linearGradient x1="96.7071" y1="63.3697" x2="96.7071" y2="231.198" gradientUnits="userSpaceOnUse" spreadMethod="pad" id="fill2"><stop offset="0" stop-color="#A67AF4"/><stop offset="0.999" stop-color="#773ADC"/><stop offset="1" stop-color="#773ADC"/></linearGradient></defs><g clip-path="url(#clip0)" transform="translate(-1391 -711)"><path d="M284.081 194.253C263.852 250.521 210.491 288.043 150.698 288.041 137.468 288.096 124.3 286.231 111.606 282.504 113.536 278.112 114.563 273.375 114.626 268.579 114.794 268.579 115.129 268.746 115.297 268.746 126.794 272.119 138.717 273.813 150.698 273.78 199.557 273.682 244.117 245.84 265.626 201.971L265.794 201.803Z" fill="#32BEDD" transform="matrix(1.00331 0 0 1 1391 711)"/><path d="M60.098 236.03C55.894 238.367 52.2341 241.568 49.3602 245.425 37.7272 233.5 28.2476 219.648 21.3413 204.488L38.7902 208.346 38.7902 212.709C38.7567 217.455 42.0424 221.579 46.6758 222.608L49.0247 223.111C52.1676 227.458 55.6457 231.553 59.4269 235.359Z" fill="#32BEDD" transform="matrix(1.00331 0 0 1 1391 711)"/><path d="M207.239 16.0731C204.887 20.2775 203.35 24.8883 202.709 29.6631 202.374 29.4953 201.87 29.3276 201.535 29.1598 185.512 22.1306 168.196 18.5302 150.698 18.5898 112.336 18.6539 76.0173 35.8899 51.7091 65.5676L46.8436 66.5742C42.2048 67.5207 38.8525 71.5715 38.7902 76.3053L38.7902 84.0231 21.6769 87.2109C44.8047 36.7779 95.2149 4.46036 150.698 4.49644 170.132 4.50817 189.364 8.44582 207.239 16.0731Z" fill="#32BEDD" transform="matrix(1.00331 0 0 1 1391 711)"/><path d="M283.075 95.6333 264.787 89.2578C261.443 82.3702 257.396 75.848 252.707 69.7956 252.371 69.2922 252.036 68.9567 251.868 68.6211 256.37 66.9604 260.482 64.3904 263.948 61.0711 272.033 71.5592 278.483 83.2122 283.075 95.6333Z" fill="#32BEDD" transform="matrix(1.00331 0 0 1 1391 711)"/><path d="M168.986 199.79 211.601 209.185 145.497 236.567C145.161 236.567 144.994 236.734 144.658 236.734 143.283 236.699 142.177 235.594 142.141 234.218L142.141 57.8498C142.177 56.4747 143.283 55.3683 144.658 55.3331 144.948 55.3069 145.239 55.3653 145.497 55.5009L220.326 81.6742 169.154 91.2376C164.902 92.2011 161.856 95.9395 161.771 100.298L161.771 190.898C161.741 195.204 164.764 198.931 168.986 199.79Z" fill="#FFFFFF" transform="matrix(1.00331 0 0 1 1391 711)"/><path d="M18.4556 95.0965 38.7567 91.2376 38.7567 201.132 18.12 196.602 1.51 192.911C0.560759 192.733-0.0948614 191.859 6.0002e-08 190.898L1.39703e-15 100.298C-0.0297985 99.3558 0.597557 98.5193 1.51 98.2842Z" fill="#A67AF4" transform="matrix(1.00331 0 0 1 1391 711)"/><path d="M168.986 199.79 211.601 209.185 145.497 236.567C145.161 236.567 144.994 236.734 144.658 236.734 143.283 236.699 142.177 235.594 142.141 234.218L142.141 57.8498C142.177 56.4747 143.283 55.3683 144.658 55.3331 144.948 55.3069 145.239 55.3653 145.497 55.5009L220.326 81.6742 169.154 91.2376C164.902 92.2011 161.856 95.9395 161.771 100.298L161.771 190.898C161.741 195.204 164.764 198.931 168.986 199.79Z" fill="url(#fill1)" transform="matrix(1.00331 0 0 1 1391 711)"/><path d="M144.054 55.3667 48.2864 73.4531C46.9046 73.7484 45.9223 74.9764 45.9376 76.3892L45.9376 212.742C45.9251 214.133 46.8806 215.348 48.2361 215.662L143.97 236.567C145.57 236.882 147.123 235.84 147.438 234.24 147.476 234.045 147.495 233.847 147.493 233.647L147.493 58.3531C147.521 56.7317 146.23 55.3947 144.609 55.3667 144.608 55.3667 144.608 55.3667 144.608 55.3667Z" fill="url(#fill2)" transform="matrix(1.00331 0 0 1 1391 711)"/><path d="M99.7942 82.5634 99.7942 209.437 133.115 214.99 133.115 76.5738 99.7942 82.5634Z" fill="#B796F9" fill-opacity="0.5" transform="matrix(1.00331 0 0 1 1391 711)"/><path d="M58.8732 89.4088 58.8732 200.562 87.882 206.652 87.882 84.409 58.8732 89.4088Z" fill="#B796F9" fill-opacity="0.5" transform="matrix(1.00331 0 0 1 1391 711)"/><path d="M268.444 34.3609C268.397 50.6229 255.178 63.7681 238.916 63.7218 222.653 63.6754 209.507 50.4548 209.554 34.1929 209.601 17.9965 222.72 4.87821 238.916 4.832 255.187 4.79489 268.408 17.9552 268.444 34.2265 268.444 34.2713 268.444 34.3161 268.444 34.3609Z" fill="#32BEDD" transform="matrix(1.00331 0 0 1 1391 711)"/><path d="M107.529 267.991C107.529 284.291 94.3158 297.504 78.0167 297.504 61.7176 297.504 48.5046 284.291 48.5046 267.991 48.5046 251.692 61.7176 238.479 78.0167 238.479 94.3158 238.479 107.529 251.692 107.529 267.991Z" fill="#32BEDD" transform="matrix(1.00331 0 0 1 1391 711)"/><path d="M302 112.227 302 176.72C301.978 178.18 301.106 179.49 299.769 180.076L286.917 185.378 235.409 206.652 235.224 206.652C235.013 206.684 234.798 206.684 234.587 206.652 233.661 206.652 232.909 205.9 232.909 204.974L232.909 87.8149C232.914 87.1928 233.263 86.6245 233.815 86.3384L233.815 86.3384 234.134 86.3384C234.238 86.3051 234.349 86.3051 234.453 86.3384 234.652 86.32 234.852 86.3671 235.023 86.4727L235.208 86.4727 235.409 86.4727 286.061 104.022 299.483 108.754C301.002 109.223 302.027 110.638 302 112.227Z" fill="#773ADC" transform="matrix(1.00331 0 0 1 1391 711)"/><path d="M234.201 86.2378 170.445 98.2339C169.524 98.4334 168.872 99.2547 168.885 100.197L168.885 190.948C168.877 191.874 169.511 192.683 170.412 192.894L234.167 206.836C235.209 207.061 236.236 206.399 236.459 205.357 236.463 205.347 236.464 205.337 236.466 205.326 236.483 205.182 236.483 205.035 236.466 204.89L236.466 88.184C236.476 87.1064 235.614 86.2227 234.537 86.2042 234.424 86.2015 234.312 86.2129 234.201 86.2378Z" fill="#A67AF4" transform="matrix(1.00331 0 0 1 1391 711)"/></g></svg>